<svg id="Layer_1" data-name="Layer 1" xmlns="http://www.w3.org/2000/svg" viewBox="0 0 926.04 196.65"><defs><style>.cls-1{fill:#bd93f9;}</style></defs><title>taskmaster-logo</title><path class="cls-1" d="M128.53,377.08c-1.11,0-2.22.37-3.88.37-5.17,0-8-4.25-8-9.79V327.38h9.24a10.26,10.26,0,0,0,0-20.51H116.7V293a11.82,11.82,0,1,0-23.64,0v13.85H87.33a10.26,10.26,0,1,0,0,20.51h5.73v46.56c0,15.89,8.86,24.39,25.31,24.39a36.78,36.78,0,0,0,12.19-1.85,9.54,9.54,0,0,0,7-9.24C137.58,381.7,134.07,377.45,128.53,377.08Z" transform="translate(-76.98 -201.67)"/><path class="cls-1" d="M189,304.66a59.41,59.41,0,0,0-33.07,9.6,9.26,9.26,0,0,0-4.25,7.76,9,9,0,0,0,8.86,9.06,9.56,9.56,0,0,0,4.62-1.3,35.81,35.81,0,0,1,19.77-5.91c11.83,0,19.59,5.91,19.59,15v12.37c-5.92-7.2-16.45-10.9-28.27-10.9-14.23,0-31,7.58-31,28.46,0,20,16.81,29.56,31,29.56,11.64,0,22.17-4.44,28.08-11.46a11.86,11.86,0,0,0,23.65-1.66V338.47C227.93,312.79,209.27,304.66,189,304.66Zm15.52,70c-3.88,5.17-11.27,7.76-18.85,7.76-9.24,0-16.81-4.81-16.81-13.12,0-8.5,7.57-13.49,16.81-13.49,7.58,0,15,2.59,18.85,7.76Z" transform="translate(-76.98 -201.67)"/><path class="cls-1" d="M286.13,340.5c-10-2-17-4.07-17-9.61,0-5.17,5.54-8.31,14-8.31a39,39,0,0,1,20.32,5.73,8.88,8.88,0,0,0,4.43,1.1,9.07,9.07,0,0,0,9.06-9.05,8.81,8.81,0,0,0-4.62-7.76A55.25,55.25,0,0,0,283,304.66c-23.46,0-36.58,13.11-36.58,28.08,0,21.25,19.77,24.94,35.1,27.9,10.17,2,17.92,4.25,17.92,10.53,0,5.54-4.8,9.05-15,9.05-8.13,0-17-3.14-24.2-7.57a11.1,11.1,0,0,0-5-1.3,9.77,9.77,0,0,0-4.8,18.29c9.42,5.73,20.87,8.69,32.88,8.69,24.76,0,38.62-12.2,38.62-28.64C322,347.52,301.47,343.46,286.13,340.5Z" transform="translate(-76.98 -201.67)"/><path class="cls-1" d="M391.08,347.89l24.2-23.65a11.22,11.22,0,0,0,3.14-7.76,10.92,10.92,0,0,0-10.9-10.9,10.73,10.73,0,0,0-7.76,3.14l-36.95,37.51V283.41a11.73,11.73,0,1,0-23.46,0V385.58A11.75,11.75,0,0,0,351,397.4a11.91,11.91,0,0,0,11.82-11.82v-13.3l11.09-10.35,26.23,31.41a11.79,11.79,0,0,0,20.69-7.76c0-2.77-.92-5.73-2.4-7.21Z" transform="translate(-76.98 -201.67)"/><path class="cls-1" d="M634.23,304.66a59.41,59.41,0,0,0-33.07,9.6,9.28,9.28,0,0,0-4.25,7.76,9,9,0,0,0,8.87,9.06,9.63,9.63,0,0,0,4.62-1.3,35.78,35.78,0,0,1,19.77-5.91c11.82,0,19.58,5.91,19.58,15v12.37c-5.91-7.2-16.44-10.9-28.27-10.9-14.22,0-31,7.58-31,28.46,0,20,16.82,29.56,31,29.56,11.64,0,22.17-4.44,28.08-11.46a11.86,11.86,0,0,0,23.65-1.66V338.47C673.21,312.79,654.55,304.66,634.23,304.66Zm15.52,70c-3.88,5.17-11.27,7.76-18.84,7.76-9.24,0-16.82-4.81-16.82-13.12,0-8.5,7.58-13.49,16.82-13.49,7.57,0,15,2.59,18.84,7.76Z" transform="translate(-76.98 -201.67)"/><path class="cls-1" d="M731.42,340.5c-10-2-17-4.07-17-9.61,0-5.17,5.54-8.31,14-8.31a39,39,0,0,1,20.32,5.73,8.89,8.89,0,0,0,4.44,1.1,9.06,9.06,0,0,0,9-9.05,8.81,8.81,0,0,0-4.62-7.76,55.24,55.24,0,0,0-29.37-7.94c-23.47,0-36.58,13.11-36.58,28.08,0,21.25,19.76,24.94,35.1,27.9,10.16,2,17.92,4.25,17.92,10.53,0,5.54-4.8,9.05-15,9.05-8.13,0-17-3.14-24.21-7.57a11.1,11.1,0,0,0-5-1.3,9.77,9.77,0,0,0-4.8,18.29c9.42,5.73,20.88,8.69,32.89,8.69,24.75,0,38.61-12.2,38.61-28.64C767.26,347.52,746.75,343.46,731.42,340.5Z" transform="translate(-76.98 -201.67)"/><path class="cls-1" d="M824.72,377.08c-1.11,0-2.22.37-3.88.37-5.17,0-7.94-4.25-7.94-9.79V327.38h9.23a10.26,10.26,0,0,0,0-20.51H812.9V293a11.83,11.83,0,1,0-23.65,0v13.85h-5.73a10.26,10.26,0,1,0,0,20.51h5.73v46.56c0,15.89,8.87,24.39,25.31,24.39a36.74,36.74,0,0,0,12.19-1.85,9.53,9.53,0,0,0,7-9.24C833.78,381.7,830.26,377.45,824.72,377.08Z" transform="translate(-76.98 -201.67)"/><path class="cls-1" d="M887.54,304.66c-27.16,0-46.18,20.87-46.18,46.74,0,28.64,20.5,46.93,47.66,46.93a59.32,59.32,0,0,0,29.38-7.39,9.74,9.74,0,0,0,5-8.13,9.38,9.38,0,0,0-9.23-9.24,8.82,8.82,0,0,0-4.44,1.11,38.17,38.17,0,0,1-18.1,5c-15.15,0-24.2-9.43-25.68-20.7h52.28c9.06,0,14-3.32,14-11.08C932.25,324.61,914.15,304.66,887.54,304.66Zm-22,38.43c1.11-8.87,7.39-19.77,22-19.77,15.52,0,21.44,11.27,22,19.77Z" transform="translate(-76.98 -201.67)"/><path class="cls-1" d="M993.23,305.21a14.75,14.75,0,0,0-5.92,1.48c-5.35,2-10.71,7-14.59,12.38l.18-1.66a11.82,11.82,0,1,0-23.64.18v68a11.73,11.73,0,1,0,23.46,0V337.17c3.88-5.72,13.12-9.05,19.21-9.79,7.39-1.11,11.09-5.91,11.09-11.64S999.51,305.21,993.23,305.21Z" transform="translate(-76.98 -201.67)"/><path class="cls-1" d="M574.86,202.47a10.94,10.94,0,0,0-14.29,6.28l-35.71,91.51a9.9,9.9,0,0,0-.33,1l-19.08,48.47-25.13-64.3A21.49,21.49,0,0,0,438.75,293v91.27a13.32,13.32,0,0,0,13.3,13.11A13.13,13.13,0,0,0,465,384.29V307.43l33.44,85.17a7.53,7.53,0,0,0,14,0l33.44-85.17v76.86a13.21,13.21,0,0,0,26.42,0V293a21.4,21.4,0,0,0-13.24-19.77L581,217.07A11.32,11.32,0,0,0,574.86,202.47Z" transform="translate(-76.98 -201.67)"/></svg>